<svg width="102" height="93" viewBox="0 0 102 93" fill="none" xmlns="http://www.w3.org/2000/svg">
<path opacity="0.1" fill-rule="evenodd" clip-rule="evenodd" d="M91.2407 52.769C91.2407 74.5168 73.2577 92.1472 51.075 92.1472C28.8922 92.1472 10.9092 74.5168 10.9092 52.769C10.9092 31.0211 28.8922 13.3907 51.075 13.3907C73.2577 13.3907 91.2407 31.0211 91.2407 52.769Z" fill="#5E00FF"/>
<path d="M83.1876 36.8454C73.0413 16.9099 48.5154 9.04504 28.4081 19.2788C20.4884 23.3096 14.4353 29.5469 10.627 36.8454" stroke="#5E00FF" stroke-width="1.05" stroke-linecap="round" stroke-linejoin="round"/>
<mask id="mask0_310_35298" style="mask-type:alpha" maskUnits="userSpaceOnUse" x="0" y="0" width="93" height="93">
<circle cx="46.7434" cy="46.0747" r="46.0725" fill="#C4C4C4"/>
</mask>
<g mask="url(#mask0_310_35298)">
<path d="M4.42262 48.4643C3.57261 46.1289 4.77675 43.5467 7.11215 42.6966L40.234 30.6413C42.5694 29.7913 45.1517 30.9954 46.0017 33.3308L62.5212 78.7177C63.3712 81.0531 62.1671 83.6354 59.8317 84.4854L26.7098 96.5408C24.3744 97.3908 21.7921 96.1866 20.9421 93.8512L4.42262 48.4643Z" fill="white" stroke="#5E00FF"/>
<path d="M12.6808 45.7242L38.9313 36.1699C39.7987 35.8541 40.756 35.8959 41.5927 36.2861C42.4293 36.6762 43.0767 37.3827 43.3924 38.2501L46.5955 47.0507C46.9112 47.9181 46.8694 48.8754 46.4793 49.7121C46.0892 50.5487 45.3827 51.1961 44.5153 51.5118L18.2648 61.0662C17.3974 61.3819 16.4401 61.3401 15.6034 60.95C14.7668 60.5598 14.1195 59.8534 13.8037 58.9859L10.6006 50.1853C10.2849 49.3179 10.3267 48.3606 10.7168 47.524C11.1069 46.6873 11.8134 46.04 12.6808 45.7242V45.7242Z" fill="#DECBFF"/>
<path d="M21.6575 54.6146C21.0519 55.0996 20.2981 55.3617 19.5224 55.3572C18.7466 55.3527 17.9961 55.0818 17.3966 54.5898C17.3715 54.5706 17.3507 54.5465 17.3352 54.5189C17.3198 54.4913 17.3101 54.4609 17.3068 54.4295C17.3036 54.398 17.3067 54.3663 17.3161 54.3361C17.3255 54.3059 17.341 54.278 17.3616 54.254C17.3805 54.2285 17.4046 54.2072 17.4321 54.1915C17.4597 54.1758 17.4903 54.166 17.5219 54.1627C17.5535 54.1594 17.5854 54.1627 17.6156 54.1723C17.6459 54.182 17.6738 54.1978 17.6976 54.2188C18.2128 54.6407 18.8573 54.8731 19.5235 54.8772C20.1896 54.8813 20.8371 54.6568 21.3577 54.2413C21.8784 53.8258 22.2408 53.2443 22.3843 52.5941C22.5279 51.9438 22.4439 51.2641 22.1465 50.6684C22.1328 50.6413 22.1245 50.6118 22.1223 50.5815C22.1201 50.5512 22.1239 50.5208 22.1335 50.492C22.1432 50.4632 22.1584 50.4366 22.1784 50.4137C22.1984 50.3908 22.2228 50.3721 22.2501 50.3588C22.3049 50.3319 22.3682 50.3277 22.4261 50.347C22.4841 50.3664 22.5321 50.4077 22.5598 50.4622C22.9052 51.1533 23.0041 51.9418 22.84 52.6969C22.6759 53.4521 22.2587 54.1287 21.6575 54.6146Z" fill="#5E00FF"/>
<path d="M16.9104 53.6369L16.8703 53.6515C16.8163 53.6792 16.7535 53.6846 16.6955 53.6667C16.6374 53.6487 16.5887 53.6088 16.5598 53.5554C16.2014 52.8782 16.0849 52.099 16.2294 51.3465C16.3738 50.594 16.7707 49.9131 17.3544 49.4162C17.9382 48.9194 18.6739 48.6364 19.4401 48.6138C20.2063 48.5912 20.9572 48.8305 21.5689 49.2921C21.5929 49.3103 21.6132 49.3332 21.6284 49.3592C21.6436 49.3853 21.6536 49.4141 21.6576 49.444C21.6617 49.4739 21.6599 49.5044 21.6522 49.5336C21.6445 49.5628 21.6312 49.5902 21.6129 49.6142C21.5946 49.6383 21.5718 49.6585 21.5457 49.6737C21.5196 49.6889 21.4908 49.6989 21.4609 49.703C21.431 49.7071 21.4005 49.7052 21.3713 49.6976C21.3421 49.6899 21.3147 49.6765 21.2906 49.6583C20.7632 49.2634 20.1173 49.0592 19.4585 49.0791C18.7997 49.0989 18.1671 49.3418 17.6642 49.7677C17.1612 50.1937 16.8178 50.7777 16.6901 51.424C16.5624 52.0704 16.6579 52.7408 16.961 53.3257C16.9948 53.3739 17.0084 53.4334 16.999 53.4916C16.9895 53.5497 16.9577 53.6019 16.9104 53.6369Z" fill="#5E00FF"/>
<path d="M22.5354 55.7235C21.798 56.3174 20.901 56.6794 19.9579 56.764C19.0148 56.8485 18.068 56.6516 17.237 56.1983C16.406 55.7449 15.7282 55.0554 15.2893 54.217C14.8504 53.3785 14.6702 52.4288 14.7713 51.4877C14.8724 50.5467 15.2503 49.6566 15.8573 48.93C16.4644 48.2034 17.2732 47.673 18.1816 47.4057C19.09 47.1384 20.0572 47.1463 20.9609 47.4283C21.8646 47.7104 22.6643 48.254 23.2588 48.9903C24.0541 49.9795 24.4246 51.2437 24.289 52.5058C24.1534 53.7679 23.5228 54.925 22.5354 55.7235ZM16.9379 48.7776C16.3008 49.2899 15.83 49.9795 15.585 50.7592C15.34 51.5389 15.3318 52.3736 15.5615 53.1578C15.7911 53.9419 16.2483 54.6403 16.8753 55.1646C17.5022 55.6888 18.2706 56.0154 19.0834 56.1029C19.8962 56.1905 20.7168 56.0351 21.4414 55.6565C22.166 55.2779 22.7621 54.693 23.1542 53.9758C23.5463 53.2587 23.7169 52.4414 23.6443 51.6275C23.5717 50.8136 23.2592 50.0396 22.7464 49.4034C22.0592 48.5553 21.0643 48.0131 19.9787 47.895C18.893 47.777 17.8044 48.0926 16.9502 48.7731L16.9379 48.7776Z" fill="#5E00FF"/>
<path fill-rule="evenodd" clip-rule="evenodd" d="M20.7717 76.5854C20.6695 76.6226 20.531 76.5017 20.4631 76.3153C20.3956 76.1297 20.4242 75.9489 20.5264 75.9117L51.8701 64.5035C51.9732 64.466 52.1113 64.5861 52.1789 64.7717C52.2467 64.9582 52.2184 65.1398 52.1154 65.1773L20.7717 76.5854ZM22.5573 81.4915C22.4551 81.5287 22.3166 81.4078 22.2488 81.2213C22.1812 81.0357 22.2099 80.8549 22.3121 80.8177L53.6558 69.4095C53.7588 69.372 53.897 69.4921 53.9645 69.6777C54.0324 69.8642 54.004 70.0458 53.901 70.0833L22.5573 81.4915ZM24.3429 86.3975C24.2407 86.4347 24.1023 86.3138 24.0344 86.1273C23.9669 85.9417 23.9955 85.7609 24.0977 85.7237L41.541 79.3749C41.6441 79.3374 41.7822 79.4575 41.8498 79.6431C41.9176 79.8295 41.8893 80.0111 41.7863 80.0486L24.3429 86.3975Z" fill="#5E00FF"/>
<path fill-rule="evenodd" clip-rule="evenodd" d="M17.2004 66.7734C17.0982 66.8106 16.9597 66.6897 16.8918 66.5033C16.8243 66.3177 16.8529 66.1369 16.9551 66.0997L48.2988 54.6915C48.4019 54.654 48.54 54.7741 48.6076 54.9597C48.6754 55.1461 48.6471 55.3278 48.5441 55.3653L17.2004 66.7734ZM18.986 71.6794C18.8838 71.7166 18.7453 71.5957 18.6775 71.4093C18.6099 71.2237 18.6386 71.0429 18.7408 71.0057L50.0845 59.5975C50.1875 59.56 50.3257 59.6801 50.3932 59.8657C50.4611 60.0522 50.4327 60.2338 50.3297 60.2713L18.986 71.6794Z" fill="#5E00FF"/>
<path d="M48.9076 33.0586C49.852 30.4637 52.7212 29.1257 55.3161 30.0702L88.438 42.1256C91.0329 43.07 92.3708 45.9392 91.4264 48.5341L74.9069 93.921C73.9624 96.5159 71.0932 97.8538 68.4983 96.9094L35.3765 84.854C32.7816 83.9096 31.4436 81.0403 32.3881 78.4455L48.9076 33.0586Z" fill="#5E00FF"/>
<path d="M57.465 36.439L83.7155 45.9933C84.5829 46.3091 85.2894 46.9564 85.6795 47.7931C86.0696 48.6297 86.1114 49.587 85.7957 50.4544L82.5926 59.255C82.2768 60.1225 81.6295 60.8289 80.7928 61.2191C79.9562 61.6092 78.9989 61.651 78.1314 61.3353L51.881 51.7809C51.0136 51.4652 50.3071 50.8178 49.917 49.9812C49.5268 49.1445 49.485 48.1872 49.8008 47.3198L53.0039 38.5192C53.3196 37.6518 53.967 36.9453 54.8036 36.5552C55.6402 36.165 56.5976 36.1232 57.465 36.439V36.439Z" fill="#C5A4FF"/>
<path d="M58.627 49.0193C57.8514 49.0016 57.1054 48.7178 56.5141 48.2157C55.9227 47.7136 55.5219 47.0237 55.3789 46.2615C55.372 46.2306 55.3716 46.1987 55.3775 46.1677C55.3834 46.1366 55.3955 46.1071 55.4132 46.0809C55.4309 46.0548 55.4537 46.0324 55.4803 46.0154C55.507 45.9983 55.5367 45.9869 55.5679 45.9817C55.5988 45.9743 55.6309 45.9735 55.6622 45.9792C55.6934 45.9849 55.7231 45.997 55.7494 46.0148C55.7758 46.0326 55.7981 46.0556 55.815 46.0824C55.832 46.1093 55.8432 46.1394 55.8479 46.1707C55.9714 46.8251 56.3158 47.4174 56.8234 47.8487C57.3311 48.2801 57.9714 48.5243 58.6373 48.5407C59.3033 48.557 59.9546 48.3445 60.4826 47.9387C61.0105 47.5328 61.3832 46.9582 61.5382 46.3106C61.5451 46.2811 61.5578 46.2532 61.5755 46.2285C61.5933 46.2039 61.6158 46.183 61.6417 46.1672C61.6676 46.1513 61.6963 46.1407 61.7264 46.1361C61.7564 46.1314 61.787 46.1328 61.8165 46.14C61.8758 46.1547 61.927 46.1922 61.9589 46.2442C61.9909 46.2963 62.0011 46.3588 61.9873 46.4183C61.8077 47.1698 61.3766 47.8374 60.7655 48.3104C60.1544 48.7834 59.3999 49.0335 58.627 49.0193Z" fill="#5E00FF"/>
<path d="M55.619 45.219L55.579 45.2044C55.5198 45.1909 55.4682 45.1547 55.4353 45.1036C55.4024 45.0526 55.3907 44.9907 55.4029 44.9312C55.5637 44.1821 55.9752 43.5103 56.5696 43.0267C57.164 42.543 57.9057 42.2766 58.6722 42.2712C59.4387 42.2658 60.1843 42.5219 60.7857 42.9971C61.3872 43.4723 61.8086 44.1383 61.9805 44.8851C61.9872 44.9145 61.988 44.945 61.9829 44.9748C61.9778 45.0045 61.9669 45.033 61.9508 45.0585C61.9347 45.084 61.9137 45.1062 61.8891 45.1236C61.8644 45.141 61.8366 45.1534 61.8071 45.1601C61.7777 45.1668 61.7472 45.1676 61.7174 45.1625C61.6877 45.1574 61.6592 45.1465 61.6336 45.1304C61.6081 45.1143 61.5859 45.0933 61.5685 45.0687C61.551 45.044 61.5386 45.0162 61.5319 44.9867C61.3817 44.3452 61.0182 43.7736 60.5007 43.3654C59.9833 42.9571 59.3426 42.7365 58.6835 42.7395C58.0244 42.7426 57.386 42.9692 56.8727 43.3822C56.3594 43.7952 56.0016 44.3702 55.8579 45.0131C55.8528 45.0718 55.8249 45.1261 55.7803 45.1646C55.7357 45.203 55.6778 45.2226 55.619 45.219Z" fill="#5E00FF"/>
<path d="M58.5866 50.4329C57.6399 50.4139 56.7201 50.1147 55.9433 49.5732C55.1665 49.0317 54.5677 48.2723 54.2226 47.3909C53.8774 46.5094 53.8014 45.5456 54.0041 44.6212C54.2069 43.6968 54.6793 42.8533 55.3616 42.1974C56.044 41.5415 56.9056 41.1027 57.8377 40.9362C58.7697 40.7698 59.7303 40.8834 60.5979 41.2625C61.4656 41.6417 62.2015 42.2694 62.7125 43.0664C63.2234 43.8634 63.4866 44.7938 63.4687 45.74C63.4421 47.009 62.9133 48.2156 61.9982 49.0952C61.0831 49.9749 59.8563 50.4559 58.5866 50.4329ZM58.7634 41.5141C57.9461 41.497 57.1421 41.7227 56.4532 42.1624C55.7644 42.6022 55.2215 43.2364 54.8934 43.9847C54.5653 44.7331 54.4667 45.5619 54.6099 46.3665C54.7532 47.1711 55.1319 47.9152 55.6983 48.5047C56.2646 49.0942 56.9931 49.5027 57.7916 49.6784C58.59 49.8541 59.4226 49.7892 60.184 49.4919C60.9453 49.1945 61.6013 48.6782 62.0689 48.008C62.5364 47.3379 62.7946 46.5441 62.8107 45.7271C62.8294 44.6356 62.4158 43.5808 61.66 42.7925C60.9042 42.0042 59.8675 41.5463 58.7757 41.5185L58.7634 41.5141Z" fill="#5E00FF"/>
<path fill-rule="evenodd" clip-rule="evenodd" d="M43.8251 65.2806C43.7229 65.2434 43.6946 65.0618 43.7624 64.8754C43.83 64.6898 43.9682 64.5697 44.0704 64.6069L75.4141 76.015C75.5171 76.0525 75.5457 76.2333 75.4782 76.419C75.4103 76.6054 75.2719 76.7263 75.1688 76.6888L43.8251 65.2806ZM42.0395 70.1866C41.9373 70.1494 41.909 69.9678 41.9768 69.7814C42.0444 69.5958 42.1825 69.4757 42.2847 69.5129L73.6284 80.921C73.7315 80.9585 73.7601 81.1394 73.6925 81.325C73.6247 81.5114 73.4862 81.6323 73.3832 81.5948L42.0395 70.1866ZM40.2539 75.0926C40.1517 75.0554 40.1233 74.8738 40.1912 74.6874C40.2587 74.5018 40.3969 74.3817 40.4991 74.4189L57.9424 80.7677C58.0454 80.8052 58.0741 80.986 58.0065 81.1717C57.9387 81.3581 57.8002 81.479 57.6972 81.4415L40.2539 75.0926Z" fill="#C5A4FF"/>
<path fill-rule="evenodd" clip-rule="evenodd" d="M47.3969 55.4685C47.2947 55.4313 47.2664 55.2497 47.3342 55.0632C47.4018 54.8776 47.5399 54.7575 47.6422 54.7947L78.9859 66.2029C79.0889 66.2404 79.1175 66.4212 79.05 66.6068C78.9821 66.7933 78.8437 66.9142 78.7406 66.8767L47.3969 55.4685ZM45.6113 60.3745C45.5091 60.3373 45.4807 60.1557 45.5486 59.9692C45.6161 59.7836 45.7543 59.6635 45.8565 59.7007L77.2002 71.1089C77.3032 71.1464 77.3319 71.3272 77.2643 71.5128C77.1965 71.6993 77.058 71.8202 76.955 71.7827L45.6113 60.3745Z" fill="#C5A4FF"/>
</g>
<path fill-rule="evenodd" clip-rule="evenodd" d="M97.9536 25.3505C97.9536 25.3505 97.3608 29.8384 93.707 30.7342C93.707 30.7342 97.2731 31.5844 97.9259 35.4425C97.9259 35.4425 98.7114 31.7957 101.866 30.5333C98.6611 29.8056 97.9536 25.3505 97.9536 25.3505Z" fill="#CDAFFF"/>
<path fill-rule="evenodd" clip-rule="evenodd" d="M90.6383 18.1161C90.6383 18.1161 90.2826 21.108 88.0903 21.7052C88.0903 21.7052 90.23 22.2721 90.6217 24.8441C90.6217 24.8441 91.093 22.4129 92.9858 21.5713C91.0628 21.0862 90.6383 18.1161 90.6383 18.1161Z" fill="#CDAFFF"/>
</svg>